<!DOCTYPE svg PUBLIC "-//W3C//DTD SVG 1.1//EN" "http://www.w3.org/Graphics/SVG/1.1/DTD/svg11.dtd">
<!-- Uploaded to: SVG Repo, www.svgrepo.com, Transformed by: SVG Repo Mixer Tools -->
<svg height="64px" width="64px" version="1.1" id="Layer_1" xmlns="http://www.w3.org/2000/svg" xmlns:xlink="http://www.w3.org/1999/xlink" viewBox="0 0 512 512" xml:space="preserve" fill="#ffffff" stroke="#ffffff" transform="matrix(1, 0, 0, 1, 0, 0)">
<g id="SVGRepo_bgCarrier" stroke-width="0"/>
<g id="SVGRepo_tracerCarrier" stroke-linecap="round" stroke-linejoin="round"/>
<g id="SVGRepo_iconCarrier"> <path style="fill:#314158;" d="M256,0C114.608,0,0,114.608,0,256c0,141.376,114.608,256,256,256s256-114.624,256-256 C512,114.608,397.392,0,256,0z"/> <g style="opacity:0.2;"> <polygon points="322.8,376.048 249.776,304.8 426.016,304.8 426.016,238.352 249.776,238.352 322.8,167.12 276.288,119.696 120.576,271.584 276.288,423.472 "/> </g> <polygon style="fill:#FFFFFF;" points="306.8,360.048 233.776,288.8 410.016,288.8 410.016,222.352 233.776,222.352 306.8,151.12 260.288,103.696 104.576,255.584 260.288,407.472 "/> </g>
</svg>